<?xml version="1.0" encoding="UTF-8"?>
<svg id="Capa_1" data-name="Capa 1" xmlns="http://www.w3.org/2000/svg" viewBox="0 0 499.17 499.17">
  <defs>
    <style>
      .cls-1 {
        fill: #dbb61b;
      }

      .cls-2 {
        fill: #fff;
      }
    </style>
  </defs>
  <path class="cls-2" d="M260.51,79.69c-89.18,0-161.48,74.91-161.48,167.31s72.3,167.31,161.48,167.31,161.48-74.91,161.48-167.31-72.29-167.31-161.48-167.31ZM380.3,307.25c-23.34,21.32-49.2,25.42-54.87,26.21-8.28,1.15-29.74,3.09-53.48-7.17-41.53-17.94-55.51-58.29-58.02-66.06-3.23-10.01-12.2-42.77,3.67-77.94,15.59-34.55,49.3-58.46,84.23-62.04,11.67-1.2,21.59.07,28.6,1.51-5.45.32-13.26,1.36-22.02,4.66-17.8,6.7-28,18.36-30.29,21.09-19.88,23.6-16.51,52.44-16.08,55.69.55,4.16,4.69,31.66,30.06,49.51,5.59,3.93,26.46,17.43,53.83,12.12,27.78-5.4,42.01-26.25,45.67-31.81,16.08-24.42,12.2-49.79,11.18-55.46.84,1.25,2.07,3.16,3.38,5.59,4.58,8.55,6.04,15.96,6.82,19.92,4.49,22.88,0,44.74,0,44.74-1.95,9.49-7.98,36.85-32.68,59.42Z"/>
  <path class="cls-1" d="M44.89,469.31h391.22c-11.63-1.79-28.52-4.25-48.93-6.76-74.65-9.16-140.73-11.99-159.44-12.7-4.78-.18-30.47-2.3-81.84-6.52-2.51-.21-8.38-.71-15.96-2.21-12.31-2.44-21.78-4.25-31.22-10.25-20.97-13.33-27.13-36.38-28.43-41.24-1.17-4.37-1.62-7.74-1.86-9.55-5.98-45.27-6.29-85.28-6.29-85.28s-.27-34.35-4.19-80.16c-1.97-22.96-5.48-52.15-12.12-85.98-.31,113.55-.62,227.11-.93,340.66Z"/>
  <path class="cls-1" d="M469.2,32.19h-246.58c6.41.61,17.09,1.64,30.29,2.97,74.62,7.51,73.87,8.86,100.09,10.41,18.21,1.07,36.33,3.41,54.56,4.25,1.01.05,4.06.18,8.04.86,5.92,1.01,12.82,2.18,19.68,6.72,13.22,8.74,17.1,23.85,17.92,27.04.74,2.87,1.02,5.07,1.17,6.26,3.77,29.68,3.97,55.91,3.97,55.91,0,0,.17,22.52,2.64,52.55,1.24,15.05,3.45,34.19,7.64,56.37.2-74.44.39-148.89.59-223.33Z"/>
</svg>